<svg width="1743" height="152" viewBox="0 0 1743 152" fill="none" xmlns="http://www.w3.org/2000/svg">
<path d="M196.646 3.08962L238.967 2.86069C233.01 18.1497 227.152 33.4747 221.393 48.8401C208.349 80.4282 196.143 116.379 183.503 148.78C172.738 148.614 161.97 148.627 151.205 148.82C140.899 124.055 127.823 84.6746 119.308 58.8547C108.646 88.9525 97.6129 118.92 86.2157 148.748C75.5053 148.493 64.2876 148.758 53.5413 148.847C34.908 101.993 18.205 50.9273 0 3.11203L42.4718 2.96392C52.3248 29.511 63.2372 63.3166 71.6718 90.335C81.7448 61.126 92.1948 32.0517 103.017 3.11203L136.621 2.91904C146.954 31.9171 156.902 61.0497 166.454 90.3081C174.758 62.2213 187.318 31.3021 196.646 3.08962Z" fill="url(#paint0_linear_1_86)"/>
<path d="M794.239 2.99533L955.716 2.97736C949.84 13.607 944.126 24.3174 938.569 35.1086L833.821 35.0098L833.767 58.8232C865.095 58.0063 898.51 58.5628 929.995 58.5584L929.999 89.3744C908.978 89.1903 887.961 89.1814 866.94 89.3385C855.879 89.3699 844.819 89.3025 833.758 89.132L833.763 115.746L957 115.621C950.738 126.726 944.301 137.728 937.689 148.623C892.15 147.806 839.805 148.012 794.346 148.775L794.239 2.99533Z" fill="url(#paint1_linear_1_86)"/>
<path d="M250.553 3.1076L290.934 2.92804L290.975 58.4372L378.09 58.3968L377.978 3.07615L418.054 2.93253C416.968 35.4633 418.476 70.0544 417.978 102.801C417.767 116.375 418.813 134.501 417.412 147.595C415.433 149.26 414.912 148.627 411.541 148.654C400.364 148.457 389.182 148.52 378.009 148.847L378.005 89.94L290.858 89.949C291.101 109.341 290.881 129.253 290.863 148.686C277.504 148.533 264.145 148.573 250.791 148.816C251.594 112.761 250.625 76.4106 250.934 40.3292C251.042 27.9893 250.984 15.425 250.553 3.1076Z" fill="url(#paint2_linear_1_86)"/>
<path d="M506.974 3.139L541.399 2.92804L622.324 148.852C608.193 148.641 594.35 148.394 580.21 148.784C566.335 119.894 546.463 84.6656 531.192 55.4162C528.727 50.7972 526.537 46.232 524.265 41.5187C507.118 76.9897 486.087 113.515 468.199 148.879C454.288 148.609 440.377 148.56 426.471 148.74C434.686 135.637 445.095 115.239 452.771 101.234C470.655 68.4339 488.722 35.7326 506.974 3.139Z" fill="url(#paint3_linear_1_86)"/>
<path d="M630.341 2.97739L670.53 2.9415L670.463 115.679C707.213 114.786 744.982 115.975 782.002 115.396C778.752 122.071 774.286 129.532 770.578 136.072L763.005 148.529L630.548 148.524C631.306 102.015 631.091 49.4415 630.341 2.97739Z" fill="url(#paint4_linear_1_86)"/>
<path d="M1043.94 0.661994C1076.98 -0.850751 1114.75 0.662059 1148.01 0.953835C1172.72 1.1693 1181.55 19.8564 1180.74 42.0897C1179.82 67.1689 1182.08 95.7315 1180.04 121.044C1178.65 140.723 1164.36 148.453 1146.82 150.958C1112.51 152.758 1074.15 150.953 1039.61 150.451C1025.76 150.253 1010.61 137.77 1009.8 123.105C1008.37 97.1365 1009.34 70.3784 1009.12 44.3071C1008.61 17.769 1015.44 3.99273 1043.94 0.661994Z" fill="url(#paint5_linear_1_86)"/>
<path d="M1050.28 33.5878C1080.03 33.9739 1110.49 33.6507 1140.28 33.5699L1140.28 117.817L1050.35 117.826L1050.28 33.5878Z" fill="#0B0B09"/>
<path d="M1412.09 0.706956C1439.36 -0.487079 1472.46 0.415194 1499.88 1.28154C1518.33 1.86061 1527.6 16.3641 1531.06 33.5923L1415.96 33.4756L1415.99 57.5448L1467.03 57.3833C1489.47 57.271 1527.62 53.0739 1531.56 83.5667C1532.65 91.9474 1532.04 100.054 1532.31 108.318C1533.18 135.727 1524 148.152 1496.56 151.16L1441.06 151.182C1409.91 151.331 1383.26 156.34 1375.65 117.794L1494.01 117.884L1493.93 90.8163C1475.53 90.6187 1457.14 90.6007 1438.74 90.7578C1424.51 90.7938 1401.01 92.9529 1388.92 83.7014C1382.76 78.9881 1378.03 68.7086 1377.6 60.889C1375.91 30.5668 1374.12 4.17684 1412.09 0.706956Z" fill="url(#paint6_linear_1_86)"/>
<path d="M1203.55 0.428686L1289.44 0.437672C1314.2 0.442161 1362.74 -6.17441 1362.27 32.6452C1362.14 44.0155 1363.38 58.3529 1361.89 69.3416C1357.54 101.275 1328.18 98.6494 1304.18 98.5237C1288.82 98.3352 1273.46 98.3487 1258.09 98.5686L1258.04 66.4194L1303.31 66.2489C1309.66 66.2623 1316.2 66.0424 1322.57 65.9032L1322.55 33.4847L1244.59 33.4712C1245.52 71.4424 1244.76 113.068 1244.72 151.196L1203.82 151.187C1203.42 101.302 1204.63 50.1697 1203.55 0.428686Z" fill="url(#paint7_linear_1_86)"/>
<path d="M1646.98 0.276135L1684.97 0.249176C1684.01 14.2365 1684.68 38.1486 1684.68 52.7508L1684.71 151.178C1672.23 150.98 1659.46 151.106 1646.96 151.097L1646.98 0.276135Z" fill="url(#paint8_linear_1_86)"/>
<path d="M1587.43 0.253571C1602.73 0.504947 1618.55 0.28501 1633.9 0.271544L1633.97 99.8747C1633.99 111.11 1634.75 140.108 1633.56 150.249C1631.54 151.645 1628.87 151.164 1626.24 151.111L1587.41 151.236C1587.59 135.426 1587.57 119.617 1587.37 103.807L1596.12 95.911L1596.17 52.2256C1593.65 50.0889 1590.19 47.7143 1587.46 45.7212C1587.76 30.8496 1587.47 15.188 1587.43 0.253571Z" fill="url(#paint9_linear_1_86)"/>
<path d="M1696.74 0.199738C1712.11 0.302981 1727.48 0.316483 1742.84 0.235683L1742.8 45.0658L1734.3 52.1717C1734.47 66.581 1734.51 80.9947 1734.42 95.4084L1742.77 103.255L1742.75 143.233C1742.9 146.258 1743.21 147.735 1742.16 150.603C1738.08 151.546 1703.61 151.115 1696.75 151.106L1696.74 0.199738Z" fill="url(#paint10_linear_1_86)"/>
<path d="M1651.37 2.62817C1661.41 2.26457 1672.3 2.51587 1682.41 2.55627C1683.55 23.3217 1683.24 45.6808 1683.23 66.5854C1683.34 94.0437 1683.24 121.507 1682.94 148.965C1673.54 149.073 1658.96 149.611 1650.11 148.799C1649.32 144.548 1649.49 139.574 1649.45 135.193C1649.06 93.5364 1649.46 51.8394 1649.66 10.1783C1649.67 7.56583 1650.4 5.03419 1651.37 2.62817Z" fill="url(#paint11_linear_1_86)"/>
<defs>
<linearGradient id="paint0_linear_1_86" x1="119.484" y1="2.86069" x2="119.484" y2="148.847" gradientUnits="userSpaceOnUse">
<stop stop-color="#F5F6F6"/>
<stop offset="1" stop-color="#CCCCCC"/>
</linearGradient>
<linearGradient id="paint1_linear_1_86" x1="875.619" y1="2.97736" x2="875.619" y2="148.775" gradientUnits="userSpaceOnUse">
<stop stop-color="#F5F6F6"/>
<stop offset="1" stop-color="#CCCCCC"/>
</linearGradient>
<linearGradient id="paint2_linear_1_86" x1="334.355" y1="2.92804" x2="334.355" y2="148.847" gradientUnits="userSpaceOnUse">
<stop stop-color="#F5F6F6"/>
<stop offset="1" stop-color="#CCCCCC"/>
</linearGradient>
<linearGradient id="paint3_linear_1_86" x1="524.398" y1="2.92804" x2="524.398" y2="148.879" gradientUnits="userSpaceOnUse">
<stop stop-color="#F5F6F6"/>
<stop offset="1" stop-color="#CCCCCC"/>
</linearGradient>
<linearGradient id="paint4_linear_1_86" x1="706.172" y1="2.9415" x2="706.172" y2="148.529" gradientUnits="userSpaceOnUse">
<stop stop-color="#F5F6F6"/>
<stop offset="1" stop-color="#CCCCCC"/>
</linearGradient>
<linearGradient id="paint5_linear_1_86" x1="1094.96" y1="0" x2="1094.96" y2="151.739" gradientUnits="userSpaceOnUse">
<stop stop-color="#F5F6F6"/>
<stop offset="1" stop-color="#CCCCCC"/>
</linearGradient>
<linearGradient id="paint6_linear_1_86" x1="1454.01" y1="0.132111" x2="1454.01" y2="151.471" gradientUnits="userSpaceOnUse">
<stop stop-color="#F5F6F6"/>
<stop offset="1" stop-color="#CCCCCC"/>
</linearGradient>
<linearGradient id="paint7_linear_1_86" x1="1283.09" y1="0.0126648" x2="1283.09" y2="151.196" gradientUnits="userSpaceOnUse">
<stop stop-color="#F5F6F6"/>
<stop offset="1" stop-color="#CCCCCC"/>
</linearGradient>
<linearGradient id="paint8_linear_1_86" x1="1665.14" y1="0.199738" x2="1665.14" y2="151.236" gradientUnits="userSpaceOnUse">
<stop stop-color="#FA7318"/>
<stop offset="1" stop-color="#FF893A"/>
</linearGradient>
<linearGradient id="paint9_linear_1_86" x1="1665.14" y1="0.199738" x2="1665.14" y2="151.236" gradientUnits="userSpaceOnUse">
<stop stop-color="#FA7318"/>
<stop offset="1" stop-color="#FF893A"/>
</linearGradient>
<linearGradient id="paint10_linear_1_86" x1="1665.14" y1="0.199738" x2="1665.14" y2="151.236" gradientUnits="userSpaceOnUse">
<stop stop-color="#FA7318"/>
<stop offset="1" stop-color="#FF893A"/>
</linearGradient>
<linearGradient id="paint11_linear_1_86" x1="1665.14" y1="0.199738" x2="1665.14" y2="151.236" gradientUnits="userSpaceOnUse">
<stop stop-color="#FA7318"/>
<stop offset="1" stop-color="#FF893A"/>
</linearGradient>
</defs>
</svg>
